<?xml version="1.0" encoding="iso-8859-1"?>
<!-- Generator: Adobe Illustrator 16.0.0, SVG Export Plug-In . SVG Version: 6.00 Build 0)  -->
<!DOCTYPE svg PUBLIC "-//W3C//DTD SVG 1.1//EN" "http://www.w3.org/Graphics/SVG/1.1/DTD/svg11.dtd">
<svg version="1.1" id="Capa_1" xmlns="http://www.w3.org/2000/svg" xmlns:xlink="http://www.w3.org/1999/xlink" x="0px" y="0px"
	 width="25px" height="25px" viewBox="0 0 612.08 612.08" style="enable-background:new 0 0 612.08 612.08;"
	 xml:space="preserve">
<g>
	<g>
		<rect x="139.986" y="223.899" width="195.912" height="27.987"/>
		<path d="M237.941,0C106.569,0,0.049,106.52,0.049,237.893c0,131.373,106.52,237.893,237.893,237.893
			c50.518,0,97.368-15.757,135.879-42.597v-0.028l176.433,176.433c3.274,3.274,8.479,3.358,11.839,0l47.55-47.551
			c3.274-3.274,3.106-8.703-0.027-11.838L433.21,373.8c26.867-38.539,42.624-85.39,42.624-135.907
			C475.834,106.52,369.314,0,237.941,0z M237.941,419.811c-100.475,0-181.918-81.443-181.918-181.918S137.467,55.975,237.941,55.975
			s181.918,81.443,181.918,181.918S338.416,419.811,237.941,419.811z"/>
	</g>
</g>
<g>
</g>
<g>
</g>
<g>
</g>
<g>
</g>
<g>
</g>
<g>
</g>
<g>
</g>
<g>
</g>
<g>
</g>
<g>
</g>
<g>
</g>
<g>
</g>
<g>
</g>
<g>
</g>
<g>
</g>
</svg>
